<svg id="Layer_1" data-name="Layer 1" xmlns="http://www.w3.org/2000/svg" viewBox="0 0 280.13 275.01"><defs><style>.cls-1{fill:#fff;}.cls-1,.cls-2,.cls-3{fill-rule:evenodd;}.cls-2{fill:#211c55;}.cls-3{fill:#d12727;}</style></defs><title>logo</title><path class="cls-1" d="M144.74,7.35c75.31,0,136.61,60.31,136.61,134.13,0,74-61.3,134.29-136.61,134.29C69.26,275.77,8,215.46,8,141.47,8,67.65,69.26,7.35,144.74,7.35h0Z" transform="translate(-4.58 -4.05)"/><path class="cls-2" d="M144.74,4c77,0,140,61.79,140,137.42,0,75.8-63,137.59-140,137.59-77.17,0-140.15-61.79-140.15-137.59C4.58,65.84,67.57,4,144.74,4h0Zm0,4.12c74.8,0,135.76,60,135.76,133.3,0,73.49-61,133.47-135.76,133.47-75,0-135.93-60-135.93-133.47,0-73.33,61-133.3,135.93-133.3h0Z" transform="translate(-4.58 -4.05)"/><path class="cls-2" d="M144.74,12.95c72.1,0,130.86,57.84,130.86,128.53,0,70.85-58.76,128.69-130.86,128.69-72.27,0-131-57.84-131-128.69,0-70.69,58.76-128.53,131-128.53h0Z" transform="translate(-4.58 -4.05)"/><path class="cls-3" d="M144.74,50.85c50.83,0,92.2,40.7,92.2,90.63s-41.37,90.63-92.2,90.63c-51,0-92.37-40.7-92.37-90.63s41.37-90.63,92.37-90.63h0Z" transform="translate(-4.58 -4.05)"/><path class="cls-1" d="M146.09,182.67c0.68,10.55.68,9.89,1,14.5,6.25-.33,18.24,1.15,23.81,3,3.88-4.61,6.92-13.35,6.08-17.47h-30.9Z" transform="translate(-4.58 -4.05)"/><path class="cls-1" d="M182.73,182.67c20.26,0,30.06-.16,34.28-0.33-4.22,8.07-15.87,20.93-23.64,25.21-12.5-4.12-10.13-3.3-16.72-5.6,4.39-5.93,7.6-15.49,6.08-19.28h0Z" transform="translate(-4.58 -4.05)"/><path class="cls-1" d="M162,221.72c2-2.8,9.29-12.52,12.66-16.64,11.14,3.79,8.78,2.8,15,4.94-5.74,4.61-20.43,11.86-27.69,11.7h0Z" transform="translate(-4.58 -4.05)"/><path class="cls-1" d="M146.93,200.79c6.08-.16,16.89,1.32,21.78,3.13-10.13,14.17-12,17.14-13.34,18.95-5.4.16-4.56,0.16-7.09,0.16-1-16.64-1-15.65-1.35-22.24h0Z" transform="translate(-4.58 -4.05)"/><path class="cls-1" d="M142.54,182.67c-0.68,10.88-.51,9.89-0.84,14.5-6.42-.33-18.24,1.15-24,3.13-3.71-4.78-6.75-13.68-5.91-17.8,23.13,0,25.67,0,30.73.16h0Z" transform="translate(-4.58 -4.05)"/><path class="cls-1" d="M105.9,182.34c-20.26,0-30.06,0-34.11-.16,4.22,8.07,15.7,20.76,23.47,25,12.66-4.12,10.3-3.3,16.72-5.6-4.22-6.1-7.43-15.49-6.08-19.28h0Z" transform="translate(-4.58 -4.05)"/><polygon class="cls-1" points="167.68 116.33 193 94.25 215.46 116.17 167.68 116.33"/><polygon class="cls-1" points="137.45 116.5 178.99 80.74 191.32 92.61 163.62 116.5 137.45 116.5"/><polygon class="cls-1" points="94.56 116.66 161.09 63.11 177.47 79.09 133.4 116.66 94.56 116.66"/><polygon class="cls-1" points="64.33 116.99 112.8 75.96 123.6 90.79 91.18 116.66 64.33 116.99"/><path class="cls-1" d="M132.58,66.17a8.65,8.65,0,1,1,0,17.3,8.66,8.66,0,1,1,0-17.3h0Z" transform="translate(-4.58 -4.05)"/><path class="cls-1" d="M86.31,174.43H78l-1.18,3.3H69.43L78.38,158h7.94l8.95,19.77H87.49Zm-1.52-4.28-2.53-7.09-2.7,7.09h5.23ZM98.13,158h7.26v14.83h11.48v4.94H98.13V158Zm37.32,16.48H127l-1.18,3.3h-7.43L127.34,158h7.94l8.95,19.77h-7.6Zm-1.52-4.28-2.7-7.09-2.53,7.09h5.23ZM143.22,158h22.29v4.94h-7.43v14.83h-7.43V162.89h-7.43V158Zm24.15,9.89c0-3.3,1-5.77,3.21-7.58s5.07-2.64,8.95-2.64c4.05,0,7.09.82,9.12,2.64a9,9,0,0,1,3.21,7.41,10.13,10.13,0,0,1-1.35,5.77,9.21,9.21,0,0,1-4.05,3.46,15.16,15.16,0,0,1-6.59,1.15,18.39,18.39,0,0,1-6.59-1,11.3,11.3,0,0,1-4.39-3.46,10.15,10.15,0,0,1-1.52-5.77h0Zm7.26,0a6,6,0,0,0,1.35,4.28c0.84,1,2,1.32,3.71,1.32a4.83,4.83,0,0,0,3.55-1.15,6.89,6.89,0,0,0,1.35-4.61,5.51,5.51,0,0,0-1.35-4.12,5.33,5.33,0,0,0-3.71-1.32,4.9,4.9,0,0,0-3.55,1.32,6,6,0,0,0-1.35,4.28h0Zm20.94,0c0-3.3,1-5.77,3.21-7.58,2-1.81,5.07-2.64,8.95-2.64,4.05,0,7.09.82,9.12,2.64a9,9,0,0,1,3.21,7.41,11.7,11.7,0,0,1-1.35,5.77,10.25,10.25,0,0,1-4.05,3.46,16.17,16.17,0,0,1-6.59,1.15,20.07,20.07,0,0,1-6.75-1,12.11,12.11,0,0,1-4.22-3.46,10.15,10.15,0,0,1-1.52-5.77h0Zm7.26,0a6,6,0,0,0,1.35,4.28,4.31,4.31,0,0,0,3.55,1.32,5,5,0,0,0,3.71-1.15,6.89,6.89,0,0,0,1.35-4.61,5.51,5.51,0,0,0-1.35-4.12,5.65,5.65,0,0,0-3.71-1.32,4.9,4.9,0,0,0-3.55,1.32,6,6,0,0,0-1.35,4.28h0Z" transform="translate(-4.58 -4.05)"/><path class="cls-1" d="M82.43,145.59H75.17l-1,3.46H67.57l7.77-20.43h7.09l7.77,20.43H83.44Zm-1.35-4.45-2.2-7.25-2.36,7.25h4.56Zm8.27-12.52h19.42v4.94h-6.59v15.49H95.77V133.56H89.35v-4.94Zm33.6,17h-7.26l-1,3.46h-6.59l7.77-20.43H123l7.77,20.43H124Zm-1.35-4.45-2.36-7.25-2.2,7.25h4.56Zm8.11-12.52H149.3v4.94h-6.59v15.49h-6.42V133.56h-6.59v-4.94Zm36.47,0h6.42v12.19a10.43,10.43,0,0,1-.68,3.3,7.84,7.84,0,0,1-1.69,2.8,7.08,7.08,0,0,1-2.7,1.81,16.36,16.36,0,0,1-4.39.66,26,26,0,0,1-3.38-.33,5.94,5.94,0,0,1-3-.82,9.55,9.55,0,0,1-2.2-1.65,11.4,11.4,0,0,1-1.35-2.31,14.2,14.2,0,0,1-.51-3.46V128.62h6.42V141a4.13,4.13,0,0,0,.84,2.64,3.61,3.61,0,0,0,2.7,1,3.48,3.48,0,0,0,2.53-1,3.2,3.2,0,0,0,1-2.64V128.62Zm-8.44-4.78h3.71v3.46h-3.71v-3.46Zm5.91,0h3.71v3.46h-3.71v-3.46Zm13.68,25.21V128.62H188a15.73,15.73,0,0,1,4.56.49,5.13,5.13,0,0,1,3.55,5.11,7.71,7.71,0,0,1-.68,3,5.75,5.75,0,0,1-2,2A7.83,7.83,0,0,1,191,140a5.76,5.76,0,0,1,1.69.66,3.6,3.6,0,0,1,1,1.15,5.41,5.41,0,0,1,1,1.32l3,5.93H190.5l-3.38-6.26a8.8,8.8,0,0,0-1.18-1.65,2.77,2.77,0,0,0-1.52-.49h-0.68v8.4h-6.42Zm6.42-12.19h2.7a14.45,14.45,0,0,0,1.69-.33,1.14,1.14,0,0,0,1-.66,1.48,1.48,0,0,0,.51-1.15,1.59,1.59,0,0,0-.68-1.48,3.81,3.81,0,0,0-2.36-.49h-2.87v4.12Zm16.55-8.24h6.42v7.74l6.75-7.74h8.44l-7.43,7.58,7.77,12.85h-7.77l-4.39-8.4-3.38,3.3v5.11h-6.42V128.62Z" transform="translate(-4.58 -4.05)"/><path class="cls-1" d="M129.37,257.31H126v-11.2a11.51,11.51,0,0,1-4.22,2.31v-2.8a6.87,6.87,0,0,0,2.87-1.48,4.79,4.79,0,0,0,2-2.47h2.7v15.65Zm4.9-3.63,3.21-.16a1.94,1.94,0,0,0,.68,1.15,1.68,1.68,0,0,0,1.35.49,2.37,2.37,0,0,0,1.69-.82c0.51-.66.68-1.81,0.84-3.63a3.71,3.71,0,0,1-3,1.32,5.53,5.53,0,0,1-3.55-1.32,5.15,5.15,0,0,1-1.52-3.79,5.3,5.3,0,0,1,1.69-3.79,5.42,5.42,0,0,1,3.88-1.48,5.55,5.55,0,0,1,4.22,1.81c1.18,1.32,1.69,3.3,1.69,6.1s-0.51,4.94-1.69,6.26a6.31,6.31,0,0,1-4.56,1.81,5,5,0,0,1-3.21-1,5.19,5.19,0,0,1-1.69-3h0Zm7.6-6.43A3.21,3.21,0,0,0,141,245a2.37,2.37,0,0,0-1.69-.82,3.07,3.07,0,0,0-1.52.66,3.67,3.67,0,0,0-.51,2.14,3.17,3.17,0,0,0,.68,2.31,1.66,1.66,0,0,0,1.52.66,2.2,2.2,0,0,0,1.69-.66,3.48,3.48,0,0,0,.68-2h0Zm5.74,6.43,3.21-.16a1.94,1.94,0,0,0,.68,1.15,1.68,1.68,0,0,0,1.35.49,2.37,2.37,0,0,0,1.69-.82,6,6,0,0,0,.84-3.63,3.71,3.71,0,0,1-3,1.32,5.53,5.53,0,0,1-3.55-1.32,5.15,5.15,0,0,1-1.52-3.79,5.3,5.3,0,0,1,1.69-3.79,5.42,5.42,0,0,1,3.88-1.48,6.21,6.21,0,0,1,4.39,1.81c1,1.32,1.52,3.3,1.52,6.1s-0.51,4.94-1.69,6.26a6.31,6.31,0,0,1-4.56,1.81,5,5,0,0,1-3.21-1,5.19,5.19,0,0,1-1.69-3h0Zm7.6-6.43a3.21,3.21,0,0,0-.84-2.31,2.37,2.37,0,0,0-1.69-.82,3.07,3.07,0,0,0-1.52.66,3.67,3.67,0,0,0-.51,2.14,3.17,3.17,0,0,0,.68,2.31,1.66,1.66,0,0,0,1.52.66,2.2,2.2,0,0,0,1.69-.66,3.48,3.48,0,0,0,.68-2h0Zm16.89-1.65-3.21.33a1.4,1.4,0,0,0-.51-1.32,1.94,1.94,0,0,0-1.35-.49,2.1,2.1,0,0,0-1.69.82,7.25,7.25,0,0,0-1,3.63,3.71,3.71,0,0,1,3-1.32,5.53,5.53,0,0,1,3.55,1.32,5.15,5.15,0,0,1,1.52,3.79,4.9,4.9,0,0,1-1.52,3.79,5.55,5.55,0,0,1-4.05,1.48,5.82,5.82,0,0,1-4.22-1.81c-1.18-1.32-1.69-3.3-1.69-6.1s0.51-4.94,1.69-6.1a5.85,5.85,0,0,1,4.56-2,5,5,0,0,1,3.21,1,4.41,4.41,0,0,1,1.69,3h0ZM164.66,252a3.17,3.17,0,0,0,.68,2.31,2.71,2.71,0,0,0,1.69.82,1.66,1.66,0,0,0,1.52-.66,2.75,2.75,0,0,0,.68-2.14,2.54,2.54,0,0,0-.68-2.14,2.37,2.37,0,0,0-1.69-.82,2.54,2.54,0,0,0-1.52.66,2.59,2.59,0,0,0-.68,2h0Z" transform="translate(-4.58 -4.05)"/><polygon class="cls-1" points="180.51 233.65 182.37 237.94 187.43 237.61 183.55 240.41 185.41 244.53 181.01 242.22 177.13 245.02 178.48 240.74 174.09 238.27 179.16 238.1 180.51 233.65"/><polygon class="cls-1" points="103.85 234.15 105.2 238.43 110.26 238.76 106.04 241.07 107.39 245.52 103.34 242.72 99.12 245.02 100.98 240.9 96.92 238.1 101.99 238.27 103.85 234.15"/><path class="cls-1" d="M86.82,240.83l-3.71-2.31,7.26-11.7,3.71,2.31Zm-8.11-4.78-3.21-2.31,0.68-9.23-4.9,5.93-3.21-2.31,8.78-10.88,3.21,2.47-0.68,9.06,4.73-5.93,3.21,2.47ZM65,225.35L56.09,216l2.53-2.31,3,3.13,7.77-7.09,2.87,3.13-7.77,7.09,3,3.13ZM53.55,213l-6.75-9.23,2.53-1.65,4.22,5.77,1.69-1.15-3.88-5.44,2.36-1.65,3.88,5.44L60,203.59l-4.39-6.1,2.7-1.65L65,205.24ZM56.76,194l-12.5,6.1-3.38-6.26a19.4,19.4,0,0,1-1-2.8,2.78,2.78,0,0,1,.34-2,5.3,5.3,0,0,1,1.69-1.65,4.59,4.59,0,0,1,2-.49,6.15,6.15,0,0,1,1.86.66,3.15,3.15,0,0,1,1.18,1v-1.15a6.37,6.37,0,0,1,.34-1,3.59,3.59,0,0,1,.51-0.82l2.7-3.63,2.2,4.28L50,190.08a4.48,4.48,0,0,0-.68,1.15,2.39,2.39,0,0,0,.17,1.15l0.17,0.33,5.07-2.47Zm-9.46-.16-0.84-1.65a6.46,6.46,0,0,0-.68-0.82,2.33,2.33,0,0,0-.68-0.49,1.55,1.55,0,0,0-.84.16,1.1,1.1,0,0,0-.68.82,2.2,2.2,0,0,0,.34,1.65l0.84,1.65ZM36.5,185l-1.18-3.79,5.74-7.25-7.43,2.31-1.35-3.79,13.51-4.12L47,172.12l-5.74,7.09,7.43-2.31,1.18,3.79Zm4.56-27.19,0.84,4.61,2.36,0.33L45.11,167l-14.86-2.8-0.68-4.45,12.83-7.41,0.84,4.28Zm-2.87,1.32-4.73,2.31,5.23,0.66Zm-9.46-4.78-1-12.85,3.55-.16,0.17,4.28,10.64-.66,0.34,4.12-10.64.66,0.34,4.45ZM28.06,137l0.51-4.12,14,1.15-0.51,4.28Zm7.26-6.59c-2.2-.49-3.88-1.32-4.9-2.8a7.29,7.29,0,0,1-1-5.44c0.51-2.31,1.35-4,2.87-4.94a7,7,0,0,1,5.57-.82,7.37,7.37,0,0,1,3.88,1.48,5.09,5.09,0,0,1,1.86,2.64,6.23,6.23,0,0,1,.17,4,7.81,7.81,0,0,1-1.35,3.63,6,6,0,0,1-2.87,2,8.66,8.66,0,0,1-4.22.33h0Zm0.84-4.28a5,5,0,0,0,3.21-.16,2.69,2.69,0,0,0,1.18-2,2.33,2.33,0,0,0-.51-2.14c-0.51-.66-1.52-1-3-1.32a4.33,4.33,0,0,0-3,.33,2.37,2.37,0,0,0-1.18,1.81,2.81,2.81,0,0,0,.51,2.31,5.13,5.13,0,0,0,2.87,1.15h0Zm-4.05-15.49L33.46,107l9.12-2.31-7.26-2.64,1.35-3.63,13.17,4.61-1.35,3.79L39.37,109l7.26,2.64-1.35,3.79ZM52.71,92l-2.36,4.28L52.2,98l-2,3.79L40,91.05l2.2-4.12L57.1,88.58l-2,4Zm-3.21-.49-5.23-1,3.88,3.63Zm-2.87-12,2.53-3.46,8.61,6.1,4.05-5.44,2.7,2-6.59,8.9Zm28-14.67-3.55,3.46,1,2-3.21,3.13L63,59.91l3.38-3.13L80.06,63l-3.38,3Zm-2.87-1.48L67.23,60.9l2.36,4.61Zm-0.51-11,10.81-7.41,2,2.8L80.4,50.19l6.08,8.4-3.55,2.47-6.08-8.4-3.55,2.47Zm25.67-2.47-4.22,2.47,0.51,2.31-3.71,2.14L87,42.28,91,40l11.65,9.23-3.88,2.31Zm-2.2-2.14-3.88-3.46,1.18,4.94Zm2.2-10.55,12.33-4.61,1.35,3.13-4.22,1.48,3.88,9.72-4.05,1.48-3.88-9.72L98.3,40.3Zm25.16-7.74,4.22-1,2,7.91a6.09,6.09,0,0,1,0,2.47,4.61,4.61,0,0,1-.68,2,3.92,3.92,0,0,1-1.35,1.48,14.81,14.81,0,0,1-2.87,1.15,10.2,10.2,0,0,1-2.36.33,4.21,4.21,0,0,1-2,0,5.33,5.33,0,0,1-1.69-.82A9.89,9.89,0,0,1,116,41.62a19.67,19.67,0,0,1-.84-2.31l-1.86-7.91,4.22-1,1.86,8.24a2.38,2.38,0,0,0,2.87,1.81,2.44,2.44,0,0,0,1.69-1,3.63,3.63,0,0,0,.17-2Zm-6.25-1.81,2.36-.66,0.68,2.31-2.53.49Zm4.05-1,2.36-.49,0.51,2.31-2.36.49Zm12.5,14.83-0.84-13.51,7.09-.49a10.33,10.33,0,0,1,3.21,0,3.1,3.1,0,0,1,1.69,1.15,3.42,3.42,0,0,1,.84,2.14,3.08,3.08,0,0,1-.34,2.14,4.48,4.48,0,0,1-1.18,1.32,4.22,4.22,0,0,1-1.52.66,8.34,8.34,0,0,1,1.18.49,2.35,2.35,0,0,1,.68.66,2.91,2.91,0,0,1,.68.82l2.36,3.79-4.9.33-2.53-4.12a6.32,6.32,0,0,0-.84-1,2.94,2.94,0,0,0-1.18-.16h-0.34l0.34,5.6Zm3.88-8.4h1.86a6.76,6.76,0,0,0,1-.33,0.71,0.71,0,0,0,.68-0.49,1.24,1.24,0,0,0,.34-0.82l-0.51-1a2.51,2.51,0,0,0-1.69-.16l-1.86.16Zm12.33-5.77L153,27.61l-0.34,5.11,4.9-4.78,5.74,0.33-5.4,4.78,4.73,8.9-5.4-.33-2.53-5.77L152.33,38,152,41.29,147.78,41Zm22.29,10.38L176.48,39l-0.84,3-5.57-1.48Zm20.77,11.86-4.56-2.14L185.6,49.2l-4.05-1.81,10.64-10.22,4.39,2-1.18,14.5-4.05-1.81ZM192,46.4l0.84-5.11-3.55,3.79Zm12-3.3,3.71,2.31L202,54.14l5.57,3.63-1.86,2.8-9.29-5.93Zm11.31,22.57-3.71-3.13-2,1.15-3.38-2.8L219.37,54l3.55,3-5.23,13.84-3.38-3Zm1.18-2.8,2.2-4.78-4.39,2.8Zm11.14-1.81,8.61,9.72-2.53,2.14-2.87-3.13-8.11,6.76-2.87-3.3L228,66.5l-3-3.13ZM232,76.55a7.39,7.39,0,0,1,5.57-1.32,6.89,6.89,0,0,1,4.56,3.3A7.7,7.7,0,0,1,243.52,84a6.86,6.86,0,0,1-3.38,4.28,6.78,6.78,0,0,1-3.88,1.48,5,5,0,0,1-3.38-.66A8.53,8.53,0,0,1,230,86.44a9.26,9.26,0,0,1-1.52-3.63,7.22,7.22,0,0,1,.68-3.3,6.92,6.92,0,0,1,2.87-3h0ZM234.4,80c-1.18.82-1.86,1.48-2,2.31a2.37,2.37,0,0,0,.34,2.31,2.57,2.57,0,0,0,1.86,1.15,4.74,4.74,0,0,0,3.21-1c1.18-.82,1.86-1.48,2-2.31a2.47,2.47,0,0,0-.34-2.14,2.78,2.78,0,0,0-2-1.32,6.52,6.52,0,0,0-3,1h0Zm7.26,10.88a6.75,6.75,0,0,1,5.57-.49,6.83,6.83,0,0,1,3.88,4.12,6.31,6.31,0,0,1,.51,5.44,6.13,6.13,0,0,1-4.05,3.79,7.78,7.78,0,0,1-4.05.82,4.81,4.81,0,0,1-3.21-1.15,9.2,9.2,0,0,1-3.21-6.92,4.56,4.56,0,0,1,1.18-3.13,7.72,7.72,0,0,1,3.38-2.47h0Zm1.69,3.79a5.45,5.45,0,0,0-2.53,2,2.7,2.7,0,0,0,1.86,3.79c0.68,0.33,1.86,0,3.21-.49,1.18-.66,2-1.15,2.36-2a2.75,2.75,0,0,0,0-2.31,3.67,3.67,0,0,0-1.69-1.48,6.11,6.11,0,0,0-3.21.49h0Zm16,26.36,0.84,4.12L252,126.64a11.42,11.42,0,0,1-2.36.16,7.41,7.41,0,0,1-2-.82,6.37,6.37,0,0,1-1.52-1.48,7,7,0,0,1-1-2.8,8.16,8.16,0,0,1-.34-2.14,8.5,8.5,0,0,1,.17-2.14,15.1,15.1,0,0,1,.84-1.65,9.25,9.25,0,0,1,1.52-1.15,19.23,19.23,0,0,1,2.2-.82l8.27-1.48,0.84,4.12-8.44,1.48a2.44,2.44,0,0,0-1.69,1,2.24,2.24,0,0,0-.34,1.81,2.12,2.12,0,0,0,2.87,1.81Zm1.52,9.06,0.17,4-7.6,5.44,7.77-.33,0.17,4-14.18.49v-4l7.43-5.44-7.6.33-0.17-4Zm0.17,17.47-0.17,4.12-14-.82,0.17-4.28Zm-0.34,7.09-0.68,4.28-10.47,1.65,9.46,4.45-0.68,4.28-13.17-7.25,0.84-4.45ZM257,172.95l-3.71,10.71-2.87-1,2.36-6.59-2-.82-2.36,6.26-2.7-.82,2.2-6.26-2.53-1-2.53,6.92-2.87-1,3.88-10.88ZM239,181.51l12.66,5.93-3.21,6.43a12.57,12.57,0,0,1-1.69,2.47,4.06,4.06,0,0,1-1.86,1,3.13,3.13,0,0,1-2.36-.49,6.07,6.07,0,0,1-1.69-1.15,3.69,3.69,0,0,1-.51-1.81,2.9,2.9,0,0,1,.17-1.65,12.37,12.37,0,0,1-1,.82,6.76,6.76,0,0,0-1,.33,6.11,6.11,0,0,0-1,.16h-4.56l2.2-4.28,4.73-.16a9.31,9.31,0,0,0,1.35-.16,2,2,0,0,0,.84-0.82l0.17-.33-5.23-2.47Zm5.57,7.41-0.84,1.48a6.59,6.59,0,0,1-.34,1.15,1.46,1.46,0,0,0,.17.82,0.75,0.75,0,0,0,.51.49,1.09,1.09,0,0,0,1.18.16,3,3,0,0,0,1-1.32l0.84-1.65Zm-8.44,7.74-2.2,3.46a3.26,3.26,0,0,0-1.52-.49,3.22,3.22,0,0,0-1.86,1.15,2.59,2.59,0,0,0-.51,1.32,1.51,1.51,0,0,0,.68,1,1,1,0,0,0,1,.16,4.26,4.26,0,0,0,1.86-1.32,10,10,0,0,1,3.88-2.31,4.3,4.3,0,0,1,2.87.49,6.48,6.48,0,0,1,1.35,1.65,5.93,5.93,0,0,1,.17,2.47,8.15,8.15,0,0,1-1.52,3,9.49,9.49,0,0,1-3.21,2.8,4.54,4.54,0,0,1-3.55-.49l2-3.46a2,2,0,0,0,1.52.33,2.26,2.26,0,0,0,1.18-1,1.41,1.41,0,0,0,.51-1,0.9,0.9,0,0,0-.51-0.82,0.51,0.51,0,0,0-.68,0,3,3,0,0,0-1.18.82,14.12,14.12,0,0,1-3.38,2.47,4.7,4.7,0,0,1-2.36.66,4.88,4.88,0,0,1-2-.66,5,5,0,0,1-1.52-2.14,4.05,4.05,0,0,1-.34-2.47,7.57,7.57,0,0,1,1.52-3.13c1.35-1.81,2.7-3,4.05-3.13a5.05,5.05,0,0,1,3.71.66h0Zm-1.86,18.13-2.87,3.3-10.81-8.9,2.87-3.13ZM229,220.4l-9.46,9.06L217.18,227l3-3-7.43-7.25,3-3,7.6,7.25,3-3.13Zm-11.65,10.55-3.88,2.8-5.07-2.14L208.9,237,205,239.68l-0.34-9.56-3.55-4.61,3.55-2.47,3.55,4.61Z" transform="translate(-4.58 -4.05)"/><path class="cls-1" d="M126.67,221.72c-2-2.8-9.29-12.52-12.66-16.64-11.31,3.63-8.78,2.8-15,4.94,5.57,4.45,20.26,11.86,27.69,11.7h0Z" transform="translate(-4.58 -4.05)"/><path class="cls-1" d="M141.53,200.79c-5.91-.16-16.89,1.32-21.61,3.13,10,14.17,12,17.14,13.34,18.95,5.23,0.16,4.39.16,7.09,0.16,1-16.64,1-15.65,1.18-22.24h0Z" transform="translate(-4.58 -4.05)"/></svg>